<svg xmlns="http://www.w3.org/2000/svg" xmlns:xlink="http://www.w3.org/1999/xlink" width="42.63392mm" height="42.67203mm" viewBox="0 0 120.85205 120.96007"><defs><style>.cls-1{isolation:isolate;}.cls-2{fill:#e84228;}.cls-3{fill:#413c39;}.cls-4,.cls-5,.cls-6{mix-blend-mode:multiply;}.cls-4{fill:url(#linear-gradient);}.cls-5{fill:url(#linear-gradient-2);}.cls-6{fill:url(#linear-gradient-3);}</style><linearGradient id="linear-gradient" x1="5205.14597" y1="5854.84382" x2="5205.14597" y2="5872.65579" gradientTransform="translate(-5157.0752 -5801.0527)" gradientUnits="userSpaceOnUse"><stop offset="0" stop-color="#413c39" stop-opacity="0"/><stop offset="0.09722" stop-color="#47423f" stop-opacity="0.04231"/><stop offset="0.25592" stop-color="#585351" stop-opacity="0.15735"/><stop offset="0.45634" stop-color="#746f6d" stop-opacity="0.34489"/><stop offset="0.69055" stop-color="#9a9694" stop-opacity="0.60506"/><stop offset="0.95043" stop-color="#cac7c5" stop-opacity="0.93334"/><stop offset="1" stop-color="#d4d1cf"/></linearGradient><linearGradient id="linear-gradient-2" x1="5088.76799" y1="6145.43662" x2="5088.76799" y2="6163.24788" gradientTransform="translate(-6091.75211 5161.65489) rotate(-90)" xlink:href="#linear-gradient"/><linearGradient id="linear-gradient-3" x1="4808.8056" y1="6044.46932" x2="4808.8056" y2="6062.28129" gradientTransform="translate(4881.57217 6111.6282) rotate(180)" xlink:href="#linear-gradient"/></defs><title>chatwork-logo-nontext</title><g class="cls-1"><g id="レイヤー_2" data-name="レイヤー 2"><g id="Layer_1" data-name="Layer 1"><path class="cls-2" d="M112.90527,62.1999A27.03746,27.03746,0,0,0,94.751,54.278H78.958a12.41161,12.41161,0,0,0,12.4189,12.3984h3.8995v.0083a14.8181,14.8181,0,1,1-16.3028,16.3189h.0088L78.958,66.7125V54.278H66.57517V66.6847H54.27437V40.7448c.0293-8.2666-2.3145-14.8028-7.916-20.4033a27.16422,27.16422,0,1,0-20.2578,46.3432h14.5351c-8.2666-.0283-14.8027,2.314-20.4033,7.9185A27.16319,27.16319,0,1,0,66.57517,94.859V80.2165c-.02739,8.2675,2.3144,14.8027,7.918,20.4023a27.16386,27.16386,0,0,0,38.4121-38.4189Zm-17.6016,4.4604v-.0239l.0078.0083ZM25.54587,54.3239l-.0078-.0083.0078-.0156Zm3.9258-.0401h-3.8975V54.278a14.81767,14.81767,0,1,1,16.3027-16.3208h-.0097V66.6847A12.39064,12.39064,0,0,0,29.47167,54.2838ZM54.207,95.4215l-.0166-.0088h.02441Zm-.03219-3.9355v3.8984h-.00591a14.81956,14.81956,0,1,1-16.3203-16.3008v.0079h28.7266A12.39146,12.39146,0,0,0,54.17479,91.486Z"/><path class="cls-3" d="M100.61617,7.9464a27.15154,27.15154,0,0,0-46.3418,18.1543V41.8693a12.39089,12.39089,0,0,0,12.39841-12.395v-3.897h.00879A14.81865,14.81865,0,1,1,83.001,41.8771v-.0078H54.27437V54.276h25.9395c8.2675.0279,14.8027-2.3144,20.4023-7.9184A27.2025,27.2025,0,0,0,100.61617,7.9464ZM66.63379,25.5495l.00779-.0083.0156.0083Z"/><rect class="cls-4" x="41.86717" y="54.2677" width="12.4072" height="12.4146"/><rect class="cls-5" x="54.16107" y="66.6823" width="12.4141" height="12.4092"/><rect class="cls-6" x="66.57517" y="54.2677" width="12.3828" height="12.4146"/></g></g></g></svg>