<svg xmlns="http://www.w3.org/2000/svg" xmlns:xlink="http://www.w3.org/1999/xlink" width="725.82471" height="542.95411" viewBox="0 0 725.82471 542.95411"><defs><style>.cls-1{fill:none;stroke:lime;stroke-miterlimit:10;}.cls-2{fill:url(#名称未設定グラデーション_74);}.cls-3{fill:url(#名称未設定グラデーション_190);}.cls-4{fill:url(#名称未設定グラデーション_9);}.cls-5{fill:url(#名称未設定グラデーション_10);}.cls-6{fill:url(#名称未設定グラデーション_234);}.cls-7{fill:url(#名称未設定グラデーション_74-2);}.cls-8{fill:url(#名称未設定グラデーション_162);}.cls-9{fill:url(#名称未設定グラデーション_74-3);}</style><linearGradient id="名称未設定グラデーション_74" y1="435.10483" x2="215.44251" y2="435.10483" gradientUnits="userSpaceOnUse"><stop offset="0" stop-color="#4a4041"/><stop offset="1" stop-color="#554a4b"/></linearGradient><linearGradient id="名称未設定グラデーション_190" x1="530.68696" y1="483.08139" x2="134.80654" y2="87.20097" gradientUnits="userSpaceOnUse"><stop offset="0" stop-color="#4ec0aa"/><stop offset="0.45" stop-color="#53c0a5"/><stop offset="1" stop-color="#e4c126"/></linearGradient><linearGradient id="名称未設定グラデーション_9" x1="170.47071" y1="242.95403" x2="371.47378" y2="242.95403" gradientUnits="userSpaceOnUse"><stop offset="0" stop-color="#fff"/><stop offset="1" stop-color="#f4f4f4"/></linearGradient><linearGradient id="名称未設定グラデーション_10" x1="324.46741" y1="271.44526" x2="477.47665" y2="271.44526" gradientTransform="translate(2.38408 -3.48003) rotate(0.5)" gradientUnits="userSpaceOnUse"><stop offset="0" stop-color="#f4f4f4"/><stop offset="1" stop-color="#fff"/></linearGradient><linearGradient id="名称未設定グラデーション_234" x1="346.47206" y1="347.9541" x2="346.47206" y2="251.9541" gradientUnits="userSpaceOnUse"><stop offset="0" stop-color="#fbfbfb"/><stop offset="1" stop-color="#fff"/></linearGradient><linearGradient id="名称未設定グラデーション_74-2" x1="429.29441" y1="328.34221" x2="272.46375" y2="599.9809" xlink:href="#名称未設定グラデーション_74"/><linearGradient id="名称未設定グラデーション_162" x1="491.66021" y1="185.34054" x2="257.31655" y2="591.23566" gradientUnits="userSpaceOnUse"><stop offset="0" stop-color="#9b9494"/><stop offset="1" stop-color="#554b4b"/></linearGradient><linearGradient id="名称未設定グラデーション_74-3" x1="665.29746" y1="334.98969" x2="689.29746" y2="334.98969" xlink:href="#名称未設定グラデーション_74"/></defs><title>tc-logo-turtle_1</title><g id="レイヤー_2" data-name="レイヤー 2"><g id="grid"><line class="cls-1" x1="348.97205" y1="301.45411" x2="455.97205" y2="242.45411"/></g><g id="vertical"><g id="turtle"><path id="tail" class="cls-2" d="M199.111,409.45411c22.86745.78175,15.0382,52.41294,15.0382,52.41294S73.90528,449.98729,14.6007,445.24522C-1.54589,443.95411-49.52795,400.95411,199.111,409.45411Z"/><path id="planet" class="cls-3" d="M347.27158,437.73969s280.82854-29.03636,289.46265-62.41709A300.43852,300.43852,0,0,0,646.27158,300c0-165.68542-134.31458-300-300-300s-300,134.31458-300,300a298.66861,298.66861,0,0,0,65.29626,186.84517C128.427,507.99,347.27158,437.73969,347.27158,437.73969Z"/><path id="clock-long" class="cls-4" d="M347.4535,323.95509a23.88678,23.88678,0,0,1-14.3208-4.75586l-153-114A23.99983,23.99983,0,1,1,208.81141,166.709l153.00049,114a24.00084,24.00084,0,0,1-14.3584,43.24609Z"/><path id="clock-short" class="cls-5" d="M348.03735,323.499a24.00344,24.00344,0,0,1-11.0777-45.19556l105.49341-56.08154a23.99982,23.99982,0,1,1,22.53139,42.38281L359.491,320.68677A23.897,23.897,0,0,1,348.03735,323.499Z"/><circle id="clock-center" class="cls-6" cx="346.47206" cy="299.9541" r="48"/><path id="body-back" class="cls-7" d="M99.65607,470.97425a297.84113,297.84113,0,0,0,56.98608,61.47144,47.53884,47.53884,0,0,0,29.97339,10.50842h2.99335c14.06372,0,26.37256-6.787,38.467-13.96429,51.0838-30.31476,73.79437-43.24847,119.1203-43.24847,45.32684,0,68.03833,12.93372,119.12384,43.24878,12.09442,7.177,24.40314,13.964,38.46667,13.964h1.2868a48.21851,48.21851,0,0,0,30.44592-10.89264,298.32122,298.32122,0,0,0,77.83014-96.87762Z"/><path id="body-front" class="cls-8" d="M721.17139,328.95429c-11.624-28.79-48.14276-36.12915-69.60187-24.31451C460.663,410.04859,253.82612,467.18775,6.04743,441.47138l.131.41681c16.06152,12.01367,49.289,22.03162,93.4776,29.08606a297.84113,297.84113,0,0,0,56.98608,61.47144,47.53884,47.53884,0,0,0,29.97339,10.50842h2.99335c14.06372,0,26.37256-6.787,38.467-13.96429,51.0838-30.31476,73.79437-43.24847,119.1203-43.24847,45.32684,0,68.03833,12.93372,119.12384,43.24878,12.09442,7.177,24.40314,13.964,38.46667,13.964h1.2868a48.21851,48.21851,0,0,0,30.44592-10.89264,298.32122,298.32122,0,0,0,77.83014-96.87762l1.34229-2.62689a482.12306,482.12306,0,0,0,85.57648-38.03778C714.59437,386.98628,735.0962,363.44294,721.17139,328.95429Z"/><circle id="eye" class="cls-9" cx="677.29746" cy="334.98969" r="12"/></g></g></g></svg>