<svg xmlns="http://www.w3.org/2000/svg" width="640" height="478.75282" viewBox="0 0 640 478.75282"><defs><style>.cls-1{fill:#ececec;}.cls-2{fill:#fff;}</style></defs><title>tc-logo-turtule-2c-light</title><g id="レイヤー_2" data-name="レイヤー 2"><g id="レイヤー_1-2" data-name="レイヤー 1"><path id="tail" class="cls-1" d="M175.56721,361.03844c20.1635.68931,13.26,46.21541,13.26,46.21541s-123.66084-10.475-175.953-14.6564C-1.3631,391.459-43.67155,353.54352,175.56721,361.03844Z"/><path class="cls-2" d="M305.32693,0C159.23277,0,40.80025,118.43263,40.80025,264.52668A263.35317,263.35317,0,0,0,98.37549,429.27849c14.86574,18.64452,207.83319-43.299,207.83319-43.299s247.62209-25.603,255.23531-55.03675a264.91426,264.91426,0,0,0,8.40961-66.416C569.85361,118.43263,451.42087,0,305.32693,0ZM410.00269,233.31671l-62.223,33.07875a42.3203,42.3203,0,1,1-84.22951-7.43529L158.833,180.93556a21.162,21.162,0,0,1,25.28761-33.939L289.314,225.37569a42.32248,42.32248,0,0,1,38.97215,3.44952l61.84926-32.87979a21.162,21.162,0,1,1,19.86727,37.37128Z"/><path class="cls-1" d="M635.89691,290.05733c-10.24944-25.38578-42.4501-31.85708-61.37189-21.43951C406.19215,361.56263,223.81254,411.94541,5.33241,389.26991l.11549.36747c14.16234,10.59312,43.4608,19.4265,82.42445,25.6468a262.61877,262.61877,0,0,0,50.2478,54.20278,41.91722,41.91722,0,0,0,26.4292,9.26586h2.63935c12.40076,0,23.25415-5.98457,33.91842-12.31315,45.04348-26.73015,65.06865-38.13453,105.035-38.13453,39.96725,0,59.99318,11.40438,105.03806,38.13485,10.66438,6.32836,21.51766,12.31283,33.91831,12.31283h1.13459a42.51731,42.51731,0,0,0,26.84586-9.60459,263.04632,263.04632,0,0,0,68.62711-85.42244l1.18357-2.31633a425.104,425.104,0,0,0,75.45759-33.54C630.09758,341.22736,648.17518,320.46778,635.89691,290.05733Zm-38.68606,15.90282a10.58107,10.58107,0,1,1,10.58107-10.58107A10.58111,10.58111,0,0,1,597.21085,305.96015Z"/></g></g></svg>