<svg xmlns="http://www.w3.org/2000/svg" xmlns:xlink="http://www.w3.org/1999/xlink" width="120" height="89.76615" viewBox="0 0 120 89.76615"><defs><style>.cls-1{fill:#494949;}.cls-2{fill:#fff;}.cls-3{fill:url(#名称未設定グラデーション_74);}.cls-4{fill:none;}</style><linearGradient id="名称未設定グラデーション_74" x1="70.97489" y1="54.28455" x2="45.04621" y2="99.19435" gradientUnits="userSpaceOnUse"><stop offset="0" stop-color="#4a4041"/><stop offset="1" stop-color="#554a4b"/></linearGradient></defs><title>tc-logo-mono-temp</title><g id="レイヤー_2" data-name="レイヤー 2"><g id="レイヤー_1-2" data-name="レイヤー 1"><path id="tail" class="cls-1" d="M32.91885,67.69471c3.78066.12925,2.48625,8.66539,2.48625,8.66539S12.2187,74.396,2.41392,73.612C-.25558,73.39857-8.18841,66.28941,32.91885,67.69471Z"/><path id="planet" class="cls-1" d="M57.41412,72.37114s46.42915-4.80056,47.85662-10.31937A49.60509,49.60509,0,1,0,18.44542,80.48971C21.23273,83.98557,57.41412,72.37114,57.41412,72.37114Z"/><path id="clock-long" class="cls-2" d="M57.4442,53.55923a3.94918,3.94918,0,0,1-2.36765-.78628L29.78119,33.92542a3.96787,3.96787,0,1,1,4.74143-6.36356L59.81806,46.40939a3.968,3.968,0,0,1-2.37386,7.14984Z"/><path id="clock-short" class="cls-2" d="M57.54073,53.48383a3.96847,3.96847,0,0,1-1.83147-7.47214L73.1504,36.73977a3.96787,3.96787,0,1,1,3.7251,7.00711l-17.44114,9.272A3.95087,3.95087,0,0,1,57.54073,53.48383Z"/><circle id="clock-center" class="cls-2" cx="57.28194" cy="49.59116" r="7.9358"/><path id="body-back" class="cls-3" d="M16.47606,77.86578a49.24183,49.24183,0,0,0,9.42146,10.163A7.85956,7.85956,0,0,0,30.853,89.76615h.49489c2.32514,0,4.36015-1.1221,6.35971-2.30871,8.44564-5.01191,12.20036-7.15023,19.69406-7.15023,7.49385,0,11.24872,2.13832,19.69465,7.15028,1.99956,1.18657,4.03455,2.30865,6.35966,2.30865h.21275a7.97193,7.97193,0,0,0,5.0336-1.80087,49.3212,49.3212,0,0,0,12.86759-16.0167Z"/><path id="body-front" class="cls-1" d="M119.23067,54.38574c-1.92178-4.75982-7.9594-5.9732-11.50722-4.0199C76.161,67.793,41.96486,77.23977.99982,72.9881l.02167.06891c2.65544,1.98621,8.14891,3.64247,15.45457,4.80877a49.24183,49.24183,0,0,0,9.42146,10.163A7.85956,7.85956,0,0,0,30.853,89.76615h.49489c2.32514,0,4.36015-1.1221,6.35971-2.30871,8.44564-5.01191,12.20036-7.15023,19.69406-7.15023,7.49385,0,11.24872,2.13832,19.69465,7.15028,1.99956,1.18657,4.03455,2.30865,6.35966,2.30865h.21275a7.97193,7.97193,0,0,0,5.0336-1.80087,49.3212,49.3212,0,0,0,12.86759-16.0167l.22192-.4343a79.709,79.709,0,0,0,14.14829-6.28875A8.46269,8.46269,0,0,0,119.23067,54.38574Z"/><circle id="eye" class="cls-4" cx="111.97703" cy="55.38357" r="1.98395"/></g></g></svg>