<svg xmlns="http://www.w3.org/2000/svg" xmlns:xlink="http://www.w3.org/1999/xlink" width="728.26517" height="762.87287" viewBox="0 0 728.26517 762.87287"><defs><style>.cls-1{fill:aqua;}.cls-2{fill:none;stroke:lime;stroke-miterlimit:10;}.cls-3{fill:url(#名称未設定グラデーション_74);}.cls-4{fill:url(#名称未設定グラデーション_190);}.cls-5{fill:url(#名称未設定グラデーション_9);}.cls-6{fill:url(#名称未設定グラデーション_10);}.cls-7{fill:url(#名称未設定グラデーション_234);}.cls-8{fill:url(#名称未設定グラデーション_74-2);}.cls-9{fill:url(#名称未設定グラデーション_162);}.cls-10{fill:url(#名称未設定グラデーション_74-3);}.cls-11,.cls-12,.cls-13,.cls-14,.cls-15{opacity:0.8;}.cls-11{fill:url(#名称未設定グラデーション_74-4);}.cls-12{fill:url(#名称未設定グラデーション_74-5);}.cls-13{fill:url(#名称未設定グラデーション_74-6);}.cls-14{fill:url(#名称未設定グラデーション_74-7);}.cls-15{fill:url(#名称未設定グラデーション_74-8);}.cls-16{fill:#9b9494;}</style><linearGradient id="名称未設定グラデーション_74" x1="2.44045" y1="495.6683" x2="217.88297" y2="495.6683" gradientUnits="userSpaceOnUse"><stop offset="0" stop-color="#4a4041"/><stop offset="1" stop-color="#554a4b"/></linearGradient><linearGradient id="名称未設定グラデーション_190" x1="533.12741" y1="543.64486" x2="137.247" y2="147.76444" gradientUnits="userSpaceOnUse"><stop offset="0" stop-color="#4ec0aa"/><stop offset="0.45" stop-color="#53c0a5"/><stop offset="1" stop-color="#e4c126"/></linearGradient><linearGradient id="名称未設定グラデーション_9" x1="172.91116" y1="303.5175" x2="373.91424" y2="303.5175" gradientUnits="userSpaceOnUse"><stop offset="0" stop-color="#fff"/><stop offset="1" stop-color="#f4f4f4"/></linearGradient><linearGradient id="名称未設定グラデーション_10" x1="326.90787" y1="332.00873" x2="479.91711" y2="332.00873" gradientTransform="translate(2.91268 -3.49902) rotate(0.5)" gradientUnits="userSpaceOnUse"><stop offset="0" stop-color="#f4f4f4"/><stop offset="1" stop-color="#fff"/></linearGradient><linearGradient id="名称未設定グラデーション_234" x1="348.91251" y1="405.28319" x2="348.91251" y2="309.28319" gradientUnits="userSpaceOnUse"><stop offset="0" stop-color="#fbfbfb"/><stop offset="1" stop-color="#fff"/></linearGradient><linearGradient id="名称未設定グラデーション_74-2" x1="431.73487" y1="388.90568" x2="274.9042" y2="660.54436" xlink:href="#名称未設定グラデーション_74"/><linearGradient id="名称未設定グラデーション_162" x1="494.10066" y1="245.90401" x2="259.757" y2="651.79913" gradientUnits="userSpaceOnUse"><stop offset="0" stop-color="#9b9494"/><stop offset="1" stop-color="#554b4b"/></linearGradient><linearGradient id="名称未設定グラデーション_74-3" x1="667.73792" y1="392.31878" x2="691.73792" y2="392.31878" xlink:href="#名称未設定グラデーション_74"/><linearGradient id="名称未設定グラデーション_74-4" x1="0" y1="715.85359" x2="70.84906" y2="715.85359" xlink:href="#名称未設定グラデーション_74"/><linearGradient id="名称未設定グラデーション_74-5" x1="82.91883" y1="729.35564" x2="100.1804" y2="729.35564" xlink:href="#名称未設定グラデーション_74"/><linearGradient id="名称未設定グラデーション_74-6" x1="121.28902" y1="729.2024" x2="229.17489" y2="729.2024" xlink:href="#名称未設定グラデーション_74"/><linearGradient id="名称未設定グラデーション_74-7" x1="243.10322" y1="729.2024" x2="307.35556" y2="729.2024" xlink:href="#名称未設定グラデーション_74"/><linearGradient id="名称未設定グラデーション_74-8" x1="81.46582" y1="670.84806" x2="101.80794" y2="670.84806" xlink:href="#名称未設定グラデーション_74"/></defs><title>tc-logo-vertical</title><g id="レイヤー_2" data-name="レイヤー 2"><g id="grid"><path class="cls-1" d="M339.56485,20.53125h-2.17969V6.082L333.01407,7.6875V5.71875l6.21094-2.332h.33984Z" transform="translate(0 -3.23438)"/><path class="cls-1" d="M356.61563,13.25391a14.20342,14.20342,0,0,1-.375,3.5332,6.2736,6.2736,0,0,1-1.07227,2.32031,3.95914,3.95914,0,0,1-1.6875,1.27148,6.62,6.62,0,0,1-4.459,0,3.99231,3.99231,0,0,1-1.69922-1.27148,6.34613,6.34613,0,0,1-1.08984-2.32031,13.792,13.792,0,0,1-.38672-3.5332V10.65234a13.78319,13.78319,0,0,1,.38086-3.51562,6.10257,6.10257,0,0,1,1.084-2.28516,3.9616,3.9616,0,0,1,1.69336-1.24219,6.23117,6.23117,0,0,1,2.2207-.375,6.31487,6.31487,0,0,1,2.23828.375,3.95536,3.95536,0,0,1,1.69922,1.24219,6.03987,6.03987,0,0,1,1.07813,2.28516,13.98885,13.98885,0,0,1,.375,3.51563Zm-2.168-2.96484a12.4975,12.4975,0,0,0-.20508-2.44922,4.68853,4.68853,0,0,0-.61523-1.63477,2.44228,2.44228,0,0,0-1.01367-.9082,3.54,3.54,0,0,0-2.76562,0,2.40521,2.40521,0,0,0-1.00781.9082,4.848,4.848,0,0,0-.61523,1.63477,12.15989,12.15989,0,0,0-.21094,2.44922v3.30469a12.35853,12.35853,0,0,0,.21094,2.45508,5.0267,5.0267,0,0,0,.627,1.68164,2.59749,2.59749,0,0,0,1.01953.96094,3.30346,3.30346,0,0,0,2.77148,0,2.5315,2.5315,0,0,0,1.002-.96094,5.03334,5.03334,0,0,0,.60352-1.68164,13.06554,13.06554,0,0,0,.19922-2.45508Z" transform="translate(0 -3.23438)"/><line class="cls-2" x1="351.41251" y1="358.7832" x2="458.41251" y2="299.7832"/></g><g id="vertical"><g id="turtle"><path id="tail" class="cls-3" d="M201.55142,470.01758c22.86745.78175,15.0382,52.41294,15.0382,52.41294S76.34573,510.55076,17.04115,505.80868C.89456,504.51758-47.08749,461.51758,201.55142,470.01758Z" transform="translate(0 -3.23438)"/><path id="planet" class="cls-4" d="M349.712,498.30315s280.82854-29.03636,289.46265-62.41709a300.43852,300.43852,0,0,0,9.53735-75.3226c0-165.68542-134.31458-300-300-300s-300,134.31458-300,300a298.66861,298.66861,0,0,0,65.29626,186.84517C130.86744,568.55349,349.712,498.30315,349.712,498.30315Z" transform="translate(0 -3.23438)"/><path id="clock-long" class="cls-5" d="M349.894,384.51855a23.88678,23.88678,0,0,1-14.3208-4.75586l-153-114a23.99983,23.99983,0,0,1,28.67871-38.49023l153.00049,114a24.00084,24.00084,0,0,1-14.3584,43.24609Z" transform="translate(0 -3.23438)"/><path id="clock-short" class="cls-6" d="M350.4778,384.06251a24.00344,24.00344,0,0,1-11.0777-45.19556L444.89352,282.7854a23.99982,23.99982,0,1,1,22.53139,42.38281l-105.49342,56.082A23.897,23.897,0,0,1,350.4778,384.06251Z" transform="translate(0 -3.23438)"/><circle id="clock-center" class="cls-7" cx="348.91251" cy="357.28319" r="48"/><path id="body-back" class="cls-8" d="M102.09653,531.53772a297.84113,297.84113,0,0,0,56.98608,61.47144A47.53884,47.53884,0,0,0,189.056,603.51758h2.99335c14.06372,0,26.37256-6.787,38.467-13.96429,51.0838-30.31476,73.79437-43.24847,119.1203-43.24847,45.32684,0,68.03833,12.93372,119.12384,43.24878,12.09442,7.177,24.40314,13.964,38.46667,13.964h1.2868a48.21851,48.21851,0,0,0,30.44592-10.89264A298.32123,298.32123,0,0,0,616.79,495.74731Z" transform="translate(0 -3.23438)"/><path id="body-front" class="cls-9" d="M723.61185,389.51776c-11.624-28.79-48.14276-36.12915-69.60187-24.31451C463.10342,470.61206,256.26657,527.75122,8.48788,502.03485l.131.41681c16.06152,12.01367,49.289,22.03162,93.4776,29.08606a297.84113,297.84113,0,0,0,56.98608,61.47144A47.53884,47.53884,0,0,0,189.056,603.51758h2.99335c14.06372,0,26.37256-6.787,38.467-13.96429,51.0838-30.31476,73.79437-43.24847,119.1203-43.24847,45.32684,0,68.03833,12.93372,119.12384,43.24878,12.09442,7.177,24.40314,13.964,38.46667,13.964h1.2868a48.21851,48.21851,0,0,0,30.44592-10.89264A298.32123,298.32123,0,0,0,616.79,495.74731l1.34229-2.62689a482.12306,482.12306,0,0,0,85.57648-38.03778C717.03482,447.54974,737.53665,424.00641,723.61185,389.51776Z" transform="translate(0 -3.23438)"/><circle id="eye" class="cls-10" cx="679.73792" cy="392.31878" r="12"/></g><g id="type"><path class="cls-11" d="M50.02734,759.35586c0,4.44984-2.87693,6.75138-8.79113,6.75138-5.91349,0-8.79042-2.30154-8.79042-6.75138V680.48334H7.03234c-4.635,0-7.03234-2.45479-7.03234-7.519,0-4.90958,2.39733-7.36437,7.03234-7.36437H63.816c4.63572,0,7.033,2.45479,7.033,7.36437,0,5.06424-2.39732,7.519-7.033,7.519H50.02734Z" transform="translate(0 -3.23438)"/><path class="cls-12" d="M100.1804,757.66731c0,4.44984-2.87693,6.75138-8.63078,6.75138s-8.63078-2.30154-8.63078-6.75138V701.04539c0-4.44984,2.87693-6.7528,8.63078-6.7528s8.63078,2.303,8.63078,6.7528Z" transform="translate(0 -3.23438)"/><path class="cls-13" d="M137.59138,701.04539v3.37569c3.83614-6.13839,11.66805-10.435,22.05692-10.435,11.02811,0,18.06115,4.60308,21.57732,12.88977,3.99577-7.82553,12.62656-12.88977,23.815-12.88977,7.83191,0,15.34385,2.7627,19.6596,9.20759,2.87693,4.29659,4.47467,10.28032,4.47467,17.9526v36.521c0,4.44984-2.87693,6.75138-8.63078,6.75138s-8.63078-2.30154-8.63078-6.75138V723.909c0-4.14334-.63924-7.98019-2.7173-10.74148-2.23769-3.0692-5.91349-4.60308-10.86847-4.60308a17.413,17.413,0,0,0-14.54427,7.21112v41.89176c0,4.44984-2.87764,6.75138-8.63149,6.75138s-8.63078-2.30154-8.63078-6.75138v-34.526c0-3.9901-.79887-7.519-2.557-9.97382-2.23769-3.0692-5.9142-4.60308-10.86847-4.60308-6.3938,0-11.66805,2.91453-14.545,7.21112v41.89176c0,4.44984-2.87693,6.75138-8.63078,6.75138s-8.63078-2.30154-8.63078-6.75138V701.04539c0-4.44984,2.71659-6.7528,8.31081-6.7528C135.514,694.29259,137.75172,697.0553,137.59138,701.04539Z" transform="translate(0 -3.23438)"/><path class="cls-14" d="M305.59748,752.75631c0,2.45479-1.59774,4.60308-4.95428,6.59813-6.07383,3.68218-13.58577,5.524-22.3769,5.524-22.05692,0-35.16308-13.34951-35.16308-35.29221,0-21.78945,12.94653-36.05986,33.08574-36.05986,18.86,0,31.1666,12.73511,31.1666,30.38263,0,9.66591-4.15541,10.74006-10.22924,10.74006H260.20516c1.59845,10.12849,7.51265,16.11222,18.86073,16.11222a27.45214,27.45214,0,0,0,13.42543-3.22244c2.23769-1.22739,3.99577-2.1483,5.9142-2.1483A7.23913,7.23913,0,0,1,305.59748,752.75631Zm-45.552-30.22938H290.5736c0-9.20617-4.955-15.8043-14.70461-15.8043C266.91823,706.72263,261.48435,712.39986,260.04553,722.52693Z" transform="translate(0 -3.23438)"/><circle class="cls-15" cx="91.63688" cy="670.84806" r="10.17106"/><path class="cls-16" d="M373.92074,751.37567a33.46214,33.46214,0,0,0,17.42191-4.60309c3.35724-1.995,5.27425-3.6836,7.353-3.6836,3.83543,0,7.51194,4.45126,7.51194,7.82695,0,3.06778-3.03656,6.137-7.51194,8.59176-6.87341,4.14334-15.82417,6.59955-25.89306,6.59955-28.76928,0-49.38809-19.79582-49.38809-52.01883,0-32.07119,20.61881-51.09793,49.22775-51.09793a51.92326,51.92326,0,0,1,26.0534,6.44489c4.6343,2.608,7.51194,5.524,7.51194,8.43993,0,3.52894-3.83685,8.132-7.83262,8.132-2.07735,0-3.99577-1.68714-7.3516-3.68218a34.4394,34.4394,0,0,0-17.74117-4.60308c-18.22078,0-31.80726,12.27537-31.80726,36.21311C341.475,738.02616,355.38069,751.37567,373.92074,751.37567Z" transform="translate(0 -3.23438)"/><path class="cls-16" d="M436.27976,758.435c0,4.44984-2.87622,6.75138-8.63007,6.75138s-8.63149-2.30154-8.63149-6.75138V701.813c0-4.44984,2.7173-6.7528,8.31223-6.7528,5.91278,0,8.15047,2.7627,7.99155,6.7528v5.37074a21.64837,21.64837,0,0,1,20.13779-12.43c5.27425,0,7.353,2.30154,7.353,7.519s-2.23769,7.519-8.31081,7.67228c-9.43036.30649-14.70461,2.91595-18.2222,9.36084Z" transform="translate(0 -3.23438)"/><path class="cls-16" d="M503.47425,694.294c22.05763,0,35.803,14.11716,35.803,35.59869,0,21.9427-14.225,36.05987-36.12229,36.05987-22.05621,0-35.80162-14.11716-35.80162-35.59869C467.35338,708.41118,481.57838,694.294,503.47425,694.294Zm0,58.15581c11.02952,0,18.06186-8.59319,18.06185-22.09595,0-13.96392-7.19268-22.71035-18.38113-22.71034-11.02811,0-18.06044,8.74643-18.06043,22.2492C485.09456,743.85663,492.28724,752.44981,503.47427,752.44981Z" transform="translate(0 -3.23438)"/><path class="cls-16" d="M584.5021,756.59313c-1.91842,5.67723-4.63572,8.59318-11.66805,8.59319-6.71307,0-9.43037-2.60945-11.18845-8.59318L546.941,705.8017a26.52958,26.52958,0,0,1-.9578-5.524c0-2.76128,1.75808-5.21749,8.31081-5.21749,6.07312,0,8.15189,1.8418,9.58929,7.36578l11.02954,43.11915L588.1786,705.1887c1.59774-4.911,4.15469-7.9802,10.70884-7.9802,6.39239,0,8.94934,2.91595,10.5485,7.82694l12.94654,40.5097,11.5077-43.11916c1.43882-5.21749,2.87622-7.36579,9.27-7.36579,6.23346,0,8.15189,2.45621,8.15189,5.21749a20.11529,20.11529,0,0,1-1.11955,5.37074l-15.66381,51.09794c-1.917,6.13839-4.79464,8.43994-11.34737,8.43994-7.19267,0-9.58929-2.60945-11.50771-8.59318l-13.26581-39.43555Z" transform="translate(0 -3.23438)"/><path class="cls-16" d="M694.17807,694.75369c5.75386,0,10.70884,1.22739,14.38535,3.52893v-31.61c0-4.44984,2.87622-6.75138,8.63149-6.75138,5.75386,0,8.63008,2.30154,8.63008,6.75138v91.7623c0,4.60308-2.71727,6.75138-8.47113,6.75138-5.27425,0-7.51194-1.995-7.51194-5.37074v-2.1483c-4.79464,5.06283-11.34737,7.67228-19.49926,7.67229-17.90152,0-31.48658-12.88976-31.48659-34.526C658.85607,708.71762,672.92073,694.75369,694.17807,694.75369Zm2.07877,13.50418c-12.14766,0-19.6596,7.97878-19.65959,21.63479,0,13.96392,7.67229,22.09736,19.01966,22.09736a19.57722,19.57722,0,0,0,12.94653-4.60451V711.94A21.075,21.075,0,0,0,696.25684,708.25786Z" transform="translate(0 -3.23438)"/></g></g></g></svg>