<svg xmlns="http://www.w3.org/2000/svg" xmlns:xlink="http://www.w3.org/1999/xlink" width="1558.99983" height="300" viewBox="0 0 1558.99983 300"><defs><style>.cls-1,.cls-2,.cls-3,.cls-4,.cls-5{opacity:0.8;}.cls-1{fill:url(#名称未設定グラデーション_74);}.cls-2{fill:url(#名称未設定グラデーション_74-2);}.cls-3{fill:url(#名称未設定グラデーション_74-3);}.cls-4{fill:url(#名称未設定グラデーション_74-4);}.cls-5{fill:url(#名称未設定グラデーション_74-5);}.cls-6{fill:#9b9494;}.cls-7{fill:url(#名称未設定グラデーション_74-6);}.cls-8{fill:url(#名称未設定グラデーション_190);}.cls-9{fill:url(#名称未設定グラデーション_9);}.cls-10{fill:url(#名称未設定グラデーション_10);}.cls-11{fill:url(#名称未設定グラデーション_234);}.cls-12{fill:url(#名称未設定グラデーション_74-7);}.cls-13{fill:url(#名称未設定グラデーション_162);}.cls-14{fill:url(#名称未設定グラデーション_74-8);}</style><linearGradient id="名称未設定グラデーション_74" x1="492.676" y1="154.17164" x2="596.76174" y2="154.17164" gradientUnits="userSpaceOnUse"><stop offset="0" stop-color="#4a4041"/><stop offset="1" stop-color="#554a4b"/></linearGradient><linearGradient id="名称未設定グラデーション_74-2" x1="614.49368" y1="174.00777" x2="639.85299" y2="174.00777" xlink:href="#名称未設定グラデーション_74"/><linearGradient id="名称未設定グラデーション_74-3" x1="670.86409" y1="173.78263" x2="829.36134" y2="173.78263" xlink:href="#名称未設定グラデーション_74"/><linearGradient id="名称未設定グラデーション_74-4" x1="849.82373" y1="173.78263" x2="944.21811" y2="173.78263" xlink:href="#名称未設定グラデーション_74"/><linearGradient id="名称未設定グラデーション_74-5" x1="612.35904" y1="92.80482" x2="642.24404" y2="92.80482" xlink:href="#名称未設定グラデーション_74"/><linearGradient id="名称未設定グラデーション_74-6" x1="0" y1="240.40973" x2="119.03907" y2="240.40973" xlink:href="#名称未設定グラデーション_74"/><linearGradient id="名称未設定グラデーション_190" x1="293.22199" y1="266.91835" x2="74.48505" y2="48.1814" gradientUnits="userSpaceOnUse"><stop offset="0" stop-color="#4ec0aa"/><stop offset="0.45" stop-color="#53c0a5"/><stop offset="1" stop-color="#e4c126"/></linearGradient><linearGradient id="名称未設定グラデーション_9" x1="94.19067" y1="134.24009" x2="205.25148" y2="134.24009" gradientUnits="userSpaceOnUse"><stop offset="0" stop-color="#fff"/><stop offset="1" stop-color="#f4f4f4"/></linearGradient><linearGradient id="名称未設定グラデーション_10" x1="178.7264" y1="149.98725" x2="263.26904" y2="149.98725" gradientUnits="userSpaceOnUse"><stop offset="0" stop-color="#f4f4f4"/><stop offset="1" stop-color="#fff"/></linearGradient><linearGradient id="名称未設定グラデーション_234" x1="191.4372" y1="192.25608" x2="191.4372" y2="139.21292" gradientUnits="userSpaceOnUse"><stop offset="0" stop-color="#fbfbfb"/><stop offset="1" stop-color="#fff"/></linearGradient><linearGradient id="名称未設定グラデーション_74-7" x1="237.19928" y1="181.41987" x2="150.54518" y2="331.50917" xlink:href="#名称未設定グラデーション_74"/><linearGradient id="名称未設定グラデーション_162" x1="271.65843" y1="102.40674" x2="142.17586" y2="326.67714" gradientUnits="userSpaceOnUse"><stop offset="0" stop-color="#9b9494"/><stop offset="1" stop-color="#554b4b"/></linearGradient><linearGradient id="名称未設定グラデーション_74-8" x1="367.59872" y1="185.09282" x2="380.85951" y2="185.09282" xlink:href="#名称未設定グラデーション_74"/></defs><title>tc-logo-horizontal-web_4</title><g id="レイヤー_2" data-name="レイヤー 2"><g id="horizontal"><g id="type"><path class="cls-1" d="M566.17214,218.08169c0,6.53734-4.22655,9.91859-12.91522,9.91859-8.68762,0-12.91417-3.38124-12.91417-9.91859V102.20851H503.00734c-6.80939,0-10.33134-3.60638-10.33134-11.04636,0-7.21276,3.522-10.81914,10.33134-10.81914h83.422c6.81043,0,10.33238,3.60638,10.33238,10.81914,0,7.44-3.522,11.04636-10.33238,11.04636H566.17214Z"/><path class="cls-2" d="M639.853,215.601c0,6.53734-4.22655,9.91859-12.67966,9.91859s-12.67966-3.38124-12.67966-9.91859V132.41663c0-6.53734,4.22655-9.92067,12.67966-9.92067s12.67966,3.38333,12.67966,9.92067Z"/><path class="cls-3" d="M694.8142,132.41663v4.95929c5.63575-9.018,17.14177-15.33024,32.40426-15.33024,16.20161,0,26.534,6.76248,31.69966,18.93662,5.87027-11.49664,18.54992-18.93662,34.98709-18.93662,11.506,0,22.542,4.05874,28.88231,13.52705,4.22655,6.31221,6.57383,15.103,6.57383,26.37452V215.601c0,6.53734-4.22655,9.91859-12.67966,9.91859S804.002,222.13835,804.002,215.601V166.006c0-6.08707-.93912-11.72386-3.992-15.78052-3.28743-4.509-8.68762-6.76248-15.96709-6.76248-9.39222,0-16.90621,4.28179-21.36728,10.594v61.544c0,6.53734-4.22759,9.91859-12.6807,9.91859s-12.67966-3.38124-12.67966-9.91859V164.87821c0-5.86193-1.17364-11.04636-3.75647-14.65274-3.28743-4.509-8.68866-6.76248-15.96709-6.76248-9.39326,0-17.14177,4.28179-21.36832,10.594v61.544c0,6.53734-4.22655,9.91859-12.67966,9.91859s-12.67966-3.38124-12.67966-9.91859V132.41663c0-6.53734,3.991-9.92067,12.20958-9.92067C691.76233,122.496,695.04976,126.5547,694.8142,132.41663Z"/><path class="cls-4" d="M941.63528,208.38616c0,3.60638-2.34727,6.76248-7.27842,9.69345-8.92318,5.40957-19.95912,8.1154-32.87434,8.1154-32.40426,0-51.65878-19.612-51.65878-51.84848,0-32.01131,19.02-52.97626,48.60691-52.97626,27.70763,0,45.78747,18.7094,45.78747,44.63572,0,14.20038-6.10479,15.77843-15.028,15.77843H874.94853c2.34832,14.88,11.037,23.67077,27.70867,23.67077a40.33048,40.33048,0,0,0,19.72356-4.73416c3.28743-1.80319,5.87027-3.1561,8.68866-3.1561C938.34784,197.56493,941.63528,203.87714,941.63528,208.38616ZM874.714,163.97557H919.5634c0-13.525-7.27947-23.21841-21.60284-23.21841C884.81083,140.75716,876.8278,149.09769,874.714,163.97557Z"/><circle class="cls-5" cx="627.30154" cy="92.80482" r="14.9425"/><path class="cls-6" d="M1042.01033,206.35783a49.15989,49.15989,0,0,0,25.59487-6.76248c4.93219-2.931,7.7485-5.41165,10.80246-5.41165,5.63471,0,11.03594,6.53943,11.03594,11.49872,0,4.50693-4.46107,9.01595-11.03594,12.62233-10.09786,6.08707-23.2476,9.69553-38.04,9.69553-42.26552,0-72.557-29.08243-72.557-76.42189,0-47.11641,30.2915-75.069,72.32146-75.069,13.85433,0,26.76851,2.931,38.27557,9.46831,6.80834,3.83152,11.03594,8.1154,11.03594,12.39927,0,5.18443-5.63679,11.94691-11.50706,11.94691-3.05187,0-5.87027-2.4786-10.80038-5.40957-7.0439-4.28388-16.20161-6.76248-26.06391-6.76248-26.76851,0-46.72867,18.034-46.72867,53.20139C994.34358,186.7458,1014.77278,206.35783,1042.01033,206.35783Z"/><path class="cls-6" d="M1133.62319,216.72878c0,6.53734-4.22551,9.91859-12.67861,9.91859s-12.6807-3.38124-12.6807-9.91859V133.5444c0-6.53734,3.992-9.92067,12.21166-9.92067,8.68658,0,11.974,4.05874,11.74054,9.92067v7.89026c5.63471-11.2715,15.966-18.26121,29.58482-18.26121,7.7485,0,10.80246,3.38124,10.80246,11.04636s-3.28743,11.04636-12.20958,11.2715c-13.85433.45028-21.60284,4.28388-26.77059,13.75219Z"/><path class="cls-6" d="M1232.33995,122.498c32.4053,0,52.59895,20.73979,52.599,52.29874,0,32.23645-20.89822,52.97626-53.068,52.97627-32.40322,0-52.59686-20.73979-52.59687-52.29874C1179.27406,143.23785,1200.17229,122.498,1232.33995,122.498Zm0,85.43784c16.20369,0,26.535-12.62442,26.535-32.46159,0-20.51467-10.56691-33.36422-27.00408-33.36421-16.20161,0-26.53294,12.84956-26.53294,32.68673C1205.338,195.31146,1215.90489,207.93587,1232.34,207.93587Z"/><path class="cls-6" d="M1351.37956,214.0229c-2.81839,8.34054-6.81042,12.62442-17.14177,12.62442-9.8623,0-13.85434-3.8336-16.43717-12.62441l-21.60286-74.6187a38.97514,38.97514,0,0,1-1.40712-8.1154c0-4.05666,2.58283-7.66512,12.20957-7.66512,8.92214,0,11.9761,2.70582,14.08781,10.82122l16.20371,63.3472,19.489-59.28847c2.34727-7.21484,6.10374-11.72386,15.73257-11.72387,9.39118,0,13.14765,4.28387,15.497,11.49872l19.02,59.5136,16.90619-63.34721c2.11379-7.66512,4.22551-10.82122,13.61877-10.82123,9.1577,0,11.9761,3.60846,11.9761,7.66512a29.55177,29.55177,0,0,1-1.64476,7.89026l-23.012,75.069c-2.81631,9.018-7.0439,12.39928-16.67064,12.39928-10.5669,0-14.08781-3.8336-16.90621-12.62441l-19.48906-57.93554Z"/><path class="cls-6" d="M1512.50669,123.17335c8.4531,0,15.73257,1.80318,21.1338,5.18442l0-46.43891c0-6.53734,4.22551-9.91859,12.6807-9.91859,8.4531,0,12.67861,3.38124,12.67862,9.91858l0,134.8098c0,6.76248-3.992,9.91859-12.44513,9.91859-7.74851,0-11.03594-2.931-11.03594-7.89025v-3.1561c-7.0439,7.4379-16.67064,11.2715-28.64674,11.27151-26.29947,0-46.25756-18.93661-46.25757-50.72278C1460.61443,143.688,1481.27711,123.17336,1512.50669,123.17335Zm3.054,19.83926c-17.84637,0-28.8823,11.72178-28.8823,31.7841,0,20.51467,11.27151,32.46367,27.94216,32.46366a28.76128,28.76128,0,0,0,19.02-6.76457l0-52.07362A30.96162,30.96162,0,0,0,1515.56065,143.01261Z"/></g><path id="tail" class="cls-7" d="M110.01536,226.23686c12.635.43194,8.3091,28.95988,8.3091,28.95988s-77.48936-6.564-110.25709-9.18411C-.85416,245.29924-27.36582,221.54033,110.01536,226.23686Z"/><path id="planet" class="cls-8" d="M191.879,241.86557S347.046,225.822,351.8166,207.37808A165.78105,165.78105,0,1,0,61.6449,268.998C70.96013,280.68119,191.879,241.86557,191.879,241.86557Z"/><path id="clock-long" class="cls-9" d="M191.97948,178.99584a13.19823,13.19823,0,0,1-7.91271-2.62777L99.52924,113.37932A13.26069,13.26069,0,1,1,115.37517,92.1122l84.5378,62.98875a13.26125,13.26125,0,0,1-7.93349,23.89489Z"/><path id="clock-short" class="cls-10" d="M192.00161,178.998a13.26269,13.26269,0,0,1-6.33848-24.91767l58.016-31.49437a13.26069,13.26069,0,1,1,12.65322,23.30836l-58.016,31.49464A13.20387,13.20387,0,0,1,192.00161,178.998Z"/><circle id="clock-center" class="cls-11" cx="191.4372" cy="165.7345" r="26.52158"/><path id="body-back" class="cls-12" d="M55.06326,260.22876a164.567,164.567,0,0,0,31.48669,33.965A26.26677,26.26677,0,0,0,103.11123,300h1.65392c7.77067,0,14.57171-3.75007,21.25427-7.71573,28.22548-16.7499,40.77382-23.8962,65.81788-23.8962,25.04457,0,37.59341,7.1463,65.81984,23.89637C264.33971,296.25,271.14068,300,278.91124,300h.711a26.64231,26.64231,0,0,0,16.82237-6.01854,164.83229,164.83229,0,0,0,43.00371-53.52807Z"/><path id="body-front" class="cls-13" d="M398.47091,181.75806c-6.42262-15.90741-26.60046-19.96254-38.45732-13.43457-105.48215,58.24184-219.76631,89.8131-356.67218,75.604l.07241.2303c8.87452,6.63795,27.23379,12.17319,51.64945,16.071a164.567,164.567,0,0,0,31.48669,33.965A26.26677,26.26677,0,0,0,103.11123,300h1.65392c7.77067,0,14.57171-3.75007,21.25427-7.71573,28.22548-16.7499,40.77382-23.8962,65.81788-23.8962,25.04457,0,37.59341,7.1463,65.81984,23.89637C264.33971,296.25,271.14068,300,278.91124,300h.711a26.64231,26.64231,0,0,0,16.82237-6.01854,164.83229,164.83229,0,0,0,43.00371-53.52807l.74166-1.45144a266.38885,266.38885,0,0,0,47.28382-21.01712C394.83689,213.82264,406.16482,200.81418,398.47091,181.75806Z"/><circle id="eye" class="cls-14" cx="374.22912" cy="185.09282" r="6.63039"/></g></g></svg>