<svg xmlns="http://www.w3.org/2000/svg" xmlns:xlink="http://www.w3.org/1999/xlink" width="907.52725" height="846.55409" viewBox="0 0 907.52725 846.55409"><defs><style>.cls-1{fill:url(#名称未設定グラデーション_74);}.cls-2{fill:#d8d8d8;}.cls-3,.cls-4{fill:#fff;}.cls-4{opacity:0.8;}</style><linearGradient id="名称未設定グラデーション_74" y1="12" x2="24" y2="12" gradientUnits="userSpaceOnUse"><stop offset="0" stop-color="#4a4041"/><stop offset="1" stop-color="#554a4b"/></linearGradient></defs><title>tc-logo-vertical-mono-light</title><g id="レイヤー_2" data-name="レイヤー 2"><g id="vertical"><g id="turtle"><circle id="eye" class="cls-1" cx="12" cy="12" r="12"/></g><g id="type"><path id="tail" class="cls-2" d="M380.81351,550.46443c22.86745.78175,15.0382,52.41294,15.0382,52.41294s-140.24389-11.87976-199.54847-16.62184C180.15665,584.96443,132.17459,541.96443,380.81351,550.46443Z"/><path class="cls-3" d="M527.97415,141.01032c-165.68555,0-300,134.31458-300,300a298.66912,298.66912,0,0,0,65.29614,186.84521c16.85925,21.14478,235.70386-49.10547,235.70386-49.10547s280.82849-29.03638,289.46265-62.41724a300.43956,300.43956,0,0,0,9.53735-75.32251C827.97415,275.3249,693.65945,141.01032,527.97415,141.01032ZM646.687,405.61506,576.1199,443.12971a47.9955,47.9955,0,1,1-95.52478-8.43237L361.83524,346.20954a23.99983,23.99983,0,0,1,28.67871-38.49023l119.29993,88.88983a47.998,47.998,0,0,1,44.19836,3.91211l70.14331-37.289A23.99985,23.99985,0,1,1,646.687,405.61506Z"/><path class="cls-2" d="M902.87393,469.96467c-11.6239-28.79-48.1427-36.12915-69.60193-24.31458C642.36551,551.05891,435.5286,608.19807,187.75,582.48176l.131.41675c16.06152,12.01367,49.28894,22.03162,93.47766,29.08606A297.83624,297.83624,0,0,0,338.34476,673.456a47.53837,47.53837,0,0,0,29.97339,10.50842h2.99329c14.06372,0,26.37256-6.78711,38.46692-13.96436,51.08386-30.3147,73.79443-43.24841,119.12036-43.24841,45.3269,0,68.03833,12.93372,119.12378,43.24878,12.09448,7.177,24.4032,13.964,38.4668,13.964H687.776A48.21893,48.21893,0,0,0,718.222,673.07185,298.32112,298.32112,0,0,0,796.052,576.19416l1.34229-2.627a482.11088,482.11088,0,0,0,85.57654-38.03772C896.29691,527.99665,916.79874,504.4532,902.87393,469.96467ZM859,488.00007a12,12,0,1,1,12-12A12,12,0,0,1,859,488.00007Z"/><path class="cls-4" d="M229.28942,839.80271c0,4.44984-2.87693,6.75138-8.79113,6.75138-5.91349,0-8.79042-2.30154-8.79042-6.75138V760.93019H186.29442c-4.635,0-7.03234-2.45479-7.03234-7.519,0-4.90958,2.39733-7.36437,7.03234-7.36437H243.0781c4.63572,0,7.033,2.45479,7.033,7.36437,0,5.06424-2.39732,7.519-7.033,7.519H229.28942Z"/><path class="cls-4" d="M279.44248,838.11416c0,4.44984-2.87693,6.75138-8.63078,6.75138s-8.63078-2.30154-8.63078-6.75138V781.49224c0-4.44984,2.87693-6.7528,8.63078-6.7528s8.63078,2.303,8.63078,6.7528Z"/><path class="cls-4" d="M316.85346,781.49224v3.37569c3.83614-6.13839,11.66805-10.435,22.05692-10.435,11.02811,0,18.06115,4.60308,21.57732,12.88977,3.99577-7.82553,12.62656-12.88977,23.815-12.88977,7.83191,0,15.34385,2.7627,19.6596,9.20759,2.87693,4.29659,4.47467,10.28032,4.47467,17.9526v36.521c0,4.44984-2.87693,6.75138-8.63078,6.75138s-8.63078-2.30154-8.63078-6.75138V804.35584c0-4.14334-.63924-7.98019-2.7173-10.74148-2.23769-3.0692-5.91349-4.60308-10.86847-4.60308a17.413,17.413,0,0,0-14.54427,7.21112v41.89176c0,4.44984-2.87764,6.75138-8.63149,6.75138s-8.63078-2.30154-8.63078-6.75138v-34.526c0-3.9901-.79887-7.519-2.557-9.97382-2.23769-3.0692-5.9142-4.60308-10.86847-4.60308-6.3938,0-11.66805,2.91453-14.545,7.21112v41.89176c0,4.44984-2.87693,6.75138-8.63078,6.75138s-8.63078-2.30154-8.63078-6.75138V781.49224c0-4.44984,2.71659-6.7528,8.31081-6.7528C314.77612,774.73944,317.01381,777.50214,316.85346,781.49224Z"/><path class="cls-4" d="M484.85957,833.20316c0,2.45479-1.59774,4.60308-4.95428,6.59813-6.07383,3.68218-13.58577,5.524-22.3769,5.524-22.05692,0-35.16308-13.34951-35.16308-35.29221,0-21.78945,12.94653-36.05986,33.08574-36.05986,18.86,0,31.1666,12.73511,31.1666,30.38263,0,9.66591-4.15541,10.74006-10.22924,10.74006H439.46725c1.59845,10.12849,7.51265,16.11222,18.86073,16.11222a27.45214,27.45214,0,0,0,13.42543-3.22244c2.23769-1.22739,3.99577-2.1483,5.9142-2.1483A7.23913,7.23913,0,0,1,484.85957,833.20316Zm-45.552-30.22938h30.52807c0-9.20617-4.955-15.8043-14.70461-15.8043C446.18031,787.16947,440.74643,792.84671,439.30761,802.97378Z"/><circle class="cls-4" cx="270.89897" cy="754.52929" r="10.17106"/><path class="cls-3" d="M553.18282,831.82252a33.46214,33.46214,0,0,0,17.42191-4.60308c3.35724-1.995,5.27425-3.6836,7.353-3.6836,3.83543,0,7.51194,4.45126,7.51194,7.82695,0,3.06778-3.03656,6.137-7.51194,8.59176-6.87341,4.14334-15.82417,6.59955-25.89306,6.59955-28.76928,0-49.38809-19.79582-49.38809-52.01883,0-32.07119,20.61881-51.09793,49.22775-51.09793a51.92326,51.92326,0,0,1,26.0534,6.44489c4.6343,2.608,7.51194,5.524,7.51194,8.43993,0,3.52894-3.83685,8.132-7.83262,8.132-2.07735,0-3.99577-1.68714-7.3516-3.68218a34.4394,34.4394,0,0,0-17.74117-4.60308c-18.22078,0-31.80726,12.27537-31.80726,36.21311C520.737,818.473,534.64278,831.82252,553.18282,831.82252Z"/><path class="cls-3" d="M615.54184,838.88181c0,4.44984-2.87622,6.75138-8.63007,6.75138s-8.63149-2.30154-8.63149-6.75138V782.25989c0-4.44984,2.7173-6.7528,8.31223-6.7528,5.91278,0,8.15047,2.7627,7.99155,6.7528v5.37074a21.64837,21.64837,0,0,1,20.13779-12.43c5.27425,0,7.353,2.30154,7.353,7.519s-2.23769,7.519-8.31081,7.67228c-9.43036.30649-14.70461,2.91595-18.2222,9.36084Z"/><path class="cls-3" d="M682.73634,774.74085c22.05763,0,35.803,14.11716,35.803,35.59869,0,21.9427-14.225,36.05987-36.12229,36.05987-22.05621,0-35.80162-14.11716-35.80162-35.59869C646.61546,788.858,660.84047,774.74086,682.73634,774.74085Zm0,58.15581c11.02952,0,18.06186-8.59319,18.06185-22.09595,0-13.96392-7.19268-22.71035-18.38113-22.71034-11.02811,0-18.06044,8.74643-18.06043,22.2492C664.35665,824.30348,671.54933,832.89666,682.73635,832.89666Z"/><path class="cls-3" d="M763.76419,837.04c-1.91842,5.67723-4.63572,8.59318-11.66805,8.59319-6.71307,0-9.43037-2.60945-11.18845-8.59318l-14.70463-50.79143a26.52958,26.52958,0,0,1-.9578-5.524c0-2.76128,1.75808-5.21749,8.31081-5.21749,6.07312,0,8.15189,1.8418,9.58929,7.36578L754.1749,825.992l13.26578-40.35646c1.59774-4.911,4.15469-7.9802,10.70884-7.9802,6.39239,0,8.94934,2.91595,10.5485,7.82694l12.94654,40.5097,11.5077-43.11916c1.43882-5.21749,2.87622-7.36579,9.27-7.36579,6.23346,0,8.15189,2.45621,8.15189,5.21749a20.11529,20.11529,0,0,1-1.11955,5.37074l-15.66381,51.09794c-1.917,6.13839-4.79464,8.43994-11.34737,8.43994-7.19267,0-9.58929-2.60945-11.50771-8.59318l-13.26581-39.43555Z"/><path class="cls-3" d="M873.44015,775.20053c5.75386,0,10.70884,1.22739,14.38535,3.52893v-31.61c0-4.44984,2.87622-6.75138,8.63149-6.75138,5.75386,0,8.63008,2.30154,8.63008,6.75138v91.7623c0,4.60308-2.71727,6.75138-8.47113,6.75138-5.27425,0-7.51194-1.995-7.51194-5.37074v-2.1483c-4.79464,5.06283-11.34737,7.67228-19.49926,7.67229-17.90152,0-31.48658-12.88976-31.48659-34.526C838.11815,789.16446,852.18281,775.20054,873.44015,775.20053Zm2.07877,13.50418c-12.14766,0-19.6596,7.97878-19.65959,21.63479,0,13.96392,7.67229,22.09736,19.01966,22.09736a19.57722,19.57722,0,0,0,12.94653-4.60451V792.38689A21.075,21.075,0,0,0,875.51892,788.70471Z"/></g></g></g></svg>