<svg xmlns="http://www.w3.org/2000/svg" xmlns:xlink="http://www.w3.org/1999/xlink" width="907.52725" height="683.96443" viewBox="0 0 907.52725 683.96443"><defs><style>.cls-1{fill:url(#名称未設定グラデーション_74);}</style><linearGradient id="名称未設定グラデーション_74" y1="12" x2="24" y2="12" gradientUnits="userSpaceOnUse"><stop offset="0" stop-color="#4a4041"/><stop offset="1" stop-color="#554a4b"/></linearGradient></defs><title>tc-logo-turtle-black</title><g id="レイヤー_2" data-name="レイヤー 2"><g id="vertical"><g id="turtle"><circle id="eye" class="cls-1" cx="12" cy="12" r="12"/></g><g id="type"><path id="tail" d="M380.81351,550.46443c22.86745.78175,15.0382,52.41294,15.0382,52.41294s-140.24389-11.87976-199.54847-16.62184C180.15665,584.96443,132.17459,541.96443,380.81351,550.46443Z"/><path d="M527.97415,141.01032c-165.68555,0-300,134.31458-300,300a298.66912,298.66912,0,0,0,65.29614,186.84521c16.85925,21.14478,235.70386-49.10547,235.70386-49.10547s280.82849-29.03638,289.46265-62.41724a300.43956,300.43956,0,0,0,9.53735-75.32251C827.97415,275.3249,693.65945,141.01032,527.97415,141.01032ZM646.687,405.61506,576.1199,443.12971a47.9955,47.9955,0,1,1-95.52478-8.43237L361.83524,346.20954a23.99983,23.99983,0,0,1,28.67871-38.49023l119.29993,88.88983a47.998,47.998,0,0,1,44.19836,3.91211l70.14331-37.289A23.99985,23.99985,0,1,1,646.687,405.61506Z"/><path d="M902.87393,469.96467c-11.6239-28.79-48.1427-36.12915-69.60193-24.31458C642.36551,551.05891,435.5286,608.19807,187.75,582.48176l.131.41675c16.06152,12.01367,49.28894,22.03162,93.47766,29.08606A297.83624,297.83624,0,0,0,338.34476,673.456a47.53837,47.53837,0,0,0,29.97339,10.50842h2.99329c14.06372,0,26.37256-6.78711,38.46692-13.96436,51.08386-30.3147,73.79443-43.24841,119.12036-43.24841,45.3269,0,68.03833,12.93372,119.12378,43.24878,12.09448,7.177,24.4032,13.964,38.4668,13.964H687.776A48.21893,48.21893,0,0,0,718.222,673.07185,298.32112,298.32112,0,0,0,796.052,576.19416l1.34229-2.627a482.11088,482.11088,0,0,0,85.57654-38.03772C896.29691,527.99665,916.79874,504.4532,902.87393,469.96467ZM859,488.00007a12,12,0,1,1,12-12A12,12,0,0,1,859,488.00007Z"/></g></g></g></svg>