<svg xmlns="http://www.w3.org/2000/svg" xmlns:xlink="http://www.w3.org/1999/xlink" width="1719.65557" height="320" viewBox="0 0 1719.65557 320"><defs><style>.cls-1{fill:none;stroke:#666;stroke-miterlimit:10;stroke-width:48px;}.cls-1,.cls-2,.cls-3,.cls-4,.cls-5,.cls-6{opacity:0.8;}.cls-2{fill:url(#名称未設定グラデーション_74);}.cls-3{fill:url(#名称未設定グラデーション_74-2);}.cls-4{fill:url(#名称未設定グラデーション_74-3);}.cls-5{fill:url(#名称未設定グラデーション_74-4);}.cls-6{fill:url(#名称未設定グラデーション_74-5);}.cls-7{fill:#9b9494;}.cls-8{fill:url(#名称未設定グラデーション_74-6);}.cls-9{fill:url(#名称未設定グラデーション_190);}.cls-10{fill:url(#名称未設定グラデーション_9);}.cls-11{fill:url(#名称未設定グラデーション_10);}.cls-12{fill:url(#名称未設定グラデーション_234);}.cls-13{fill:url(#名称未設定グラデーション_74-7);}.cls-14{fill:url(#名称未設定グラデーション_162);}.cls-15{fill:url(#名称未設定グラデーション_74-8);}</style><linearGradient id="名称未設定グラデーション_74" x1="493.44877" y1="191.56541" x2="613.14097" y2="191.56541" gradientUnits="userSpaceOnUse"><stop offset="0" stop-color="#4a4041"/><stop offset="1" stop-color="#554a4b"/></linearGradient><linearGradient id="名称未設定グラデーション_74-2" x1="633.53161" y1="214.37574" x2="662.69326" y2="214.37574" xlink:href="#名称未設定グラデーション_74"/><linearGradient id="名称未設定グラデーション_74-3" x1="698.35411" y1="214.11684" x2="880.6162" y2="214.11684" xlink:href="#名称未設定グラデーション_74"/><linearGradient id="名称未設定グラデーション_74-4" x1="904.14669" y1="214.11684" x2="1012.69442" y2="214.11684" xlink:href="#名称未設定グラデーション_74"/><linearGradient id="名称未設定グラデーション_74-5" x1="631.0769" y1="120.99734" x2="665.44282" y2="120.99734" xlink:href="#名称未設定グラデーション_74"/><linearGradient id="名称未設定グラデーション_74-6" x1="0" y1="256.43704" x2="126.97501" y2="256.43704" xlink:href="#名称未設定グラデーション_74"/><linearGradient id="名称未設定グラデーション_190" x1="312.77013" y1="284.71291" x2="79.45072" y2="51.3935" gradientUnits="userSpaceOnUse"><stop offset="0" stop-color="#4ec0aa"/><stop offset="0.45" stop-color="#53c0a5"/><stop offset="1" stop-color="#e4c126"/></linearGradient><linearGradient id="名称未設定グラデーション_9" x1="100.47005" y1="143.18943" x2="218.93491" y2="143.18943" gradientUnits="userSpaceOnUse"><stop offset="0" stop-color="#fff"/><stop offset="1" stop-color="#f4f4f4"/></linearGradient><linearGradient id="名称未設定グラデーション_10" x1="190.6415" y1="159.9864" x2="280.82031" y2="159.9864" gradientUnits="userSpaceOnUse"><stop offset="0" stop-color="#f4f4f4"/><stop offset="1" stop-color="#fff"/></linearGradient><linearGradient id="名称未設定グラデーション_234" x1="204.19968" y1="205.07315" x2="204.19968" y2="148.49379" gradientUnits="userSpaceOnUse"><stop offset="0" stop-color="#fbfbfb"/><stop offset="1" stop-color="#fff"/></linearGradient><linearGradient id="名称未設定グラデーション_74-7" x1="253.01257" y1="193.51453" x2="160.58152" y2="353.60979" xlink:href="#名称未設定グラデーション_74"/><linearGradient id="名称未設定グラデーション_162" x1="289.76899" y1="109.23386" x2="151.65425" y2="348.45562" gradientUnits="userSpaceOnUse"><stop offset="0" stop-color="#9b9494"/><stop offset="1" stop-color="#554b4b"/></linearGradient><linearGradient id="名称未設定グラデーション_74-8" x1="392.10531" y1="197.43234" x2="406.25015" y2="197.43234" xlink:href="#名称未設定グラデーション_74"/></defs><title>tc-logo-horizontal_1</title><g id="レイヤー_2" data-name="レイヤー 2"><g id="horizontal"><g id="type"><path class="cls-1" d="M836.98818,297.07339"/><path class="cls-2" d="M577.96481,265.058c0,7.51754-4.86027,11.40576-14.8517,11.40576-9.99023,0-14.85051-3.88822-14.85051-11.40576V131.811H505.32918c-7.83038,0-11.8804-4.14711-11.8804-12.70264,0-8.29423,4.05-12.44134,11.8804-12.44134h95.93019c7.83157,0,11.8816,4.14711,11.8816,12.44134,0,8.55552-4.05,12.70264-11.8816,12.70264H577.96481Z"/><path class="cls-3" d="M662.69326,262.20539c0,7.51754-4.86027,11.40576-14.58082,11.40576s-14.58082-3.88822-14.58082-11.40576V166.54848c0-7.51754,4.86027-11.40816,14.58082-11.40816s14.58082,3.89062,14.58082,11.40816Z"/><path class="cls-4" d="M725.89527,166.54848v5.70288c6.48077-10.37018,19.712-17.62883,37.2629-17.62883,18.63085,0,30.51246,7.77644,36.45266,21.77595,6.75045-13.22043,21.33127-21.77595,40.233-21.77595,13.23121,0,25.92186,4.6673,33.21287,15.55528,4.86027,7.25865,7.55949,17.36754,7.55949,30.32907v61.69852c0,7.51754-4.86027,11.40576-14.58082,11.40576s-14.58082-3.88822-14.58082-11.40576V205.17418c0-6.99975-1.07993-13.48172-4.59059-18.14662-3.78035-5.18509-9.99023-7.77644-18.36117-7.77644-10.80048,0-19.4411,4.9238-24.57105,12.18245v70.77183c0,7.51754-4.86147,11.40576-14.582,11.40576s-14.58082-3.88822-14.58082-11.40576V203.8773c0-6.74086-1.34961-12.70264-4.31971-16.84975-3.78035-5.18509-9.99143-7.77644-18.36117-7.77644-10.80168,0-19.712,4.9238-24.57225,12.18245v70.77183c0,7.51754-4.86027,11.40576-14.58082,11.40576s-14.58082-3.88822-14.58082-11.40576V166.54848c0-7.51754,4.58939-11.40816,14.04026-11.40816C722.3858,155.14032,726.16615,159.80762,725.89527,166.54848Z"/><path class="cls-5" d="M1009.72432,253.90877c0,4.14711-2.69922,7.77644-8.36974,11.14687-10.26111,6.22067-22.95176,9.33221-37.80347,9.33221-37.2629,0-59.40442-22.55263-59.40442-59.62256,0-36.811,21.87183-60.91944,55.895-60.91944,31.86207,0,52.65277,21.51466,52.65277,51.32833,0,16.32956-7.02013,18.14423-17.28124,18.14423H933.03866c2.70042,17.111,12.69185,27.21993,31.86326,27.21993a46.37757,46.37757,0,0,0,22.68088-5.444c3.78035-2.07356,6.75045-3.62932,9.99143-3.62932C1005.944,241.465,1009.72432,248.72368,1009.72432,253.90877ZM932.769,202.83933h51.574c0-15.55288-8.37094-26.69975-24.84194-26.69975C944.3797,176.13958,935.19971,185.73068,932.769,202.83933Z"/><circle class="cls-6" cx="648.25986" cy="120.99734" r="17.18296"/><path class="cls-7" d="M1125.14945,251.57631a56.53085,56.53085,0,0,0,29.43253-7.77644c5.67172-3.37043,8.9103-6.22307,12.42217-6.22307,6.47957,0,12.69065,7.51994,12.69065,13.22282,0,5.18269-5.13,10.36779-12.69065,14.5149-11.61192,6.99975-26.73331,11.14927-43.74367,11.14927-48.60275,0-83.43611-33.443-83.43611-87.88048,0-54.181,34.83337-86.32471,83.16523-86.32471,15.93163,0,30.78214,3.37043,44.01455,10.888,7.82918,4.406,12.69065,9.33221,12.69065,14.2584,0,5.96178-6.482,13.73822-13.23241,13.73822-3.50947,0-6.75045-2.85024-12.41977-6.22067-8.10006-4.9262-18.63085-7.77644-29.97189-7.77644-30.78214,0-53.7351,20.738-53.7351,61.17833C1070.33562,229.02368,1093.82795,251.57631,1125.14945,251.57631Z"/><path class="cls-7" d="M1230.49861,263.50227c0,7.51754-4.85908,11.40576-14.57963,11.40576s-14.582-3.88822-14.582-11.40576V167.84535c0-7.51754,4.59059-11.40816,14.04266-11.40816,9.989,0,13.76938,4.6673,13.50089,11.40816v9.07331c6.47957-12.96153,18.36-20.99926,34.02072-20.99926,8.9103,0,12.42217,3.88822,12.42217,12.70264s-3.78035,12.70264-14.04026,12.96153c-15.93163.51779-24.84194,4.9262-30.78454,15.81417Z"/><path class="cls-7" d="M1344.01681,155.1427c37.2641,0,60.48555,23.84949,60.48556,60.14034,0,37.06993-24.03167,60.91944-61.02489,60.91945-37.26171,0-60.48316-23.84949-60.48317-60.14034C1282.9943,178.99222,1307.026,155.14271,1344.01681,155.1427Zm0,98.24826c18.63325,0,30.51365-14.51731,30.51364-37.32884,0-23.59061-12.1513-38.3668-31.053-38.36679-18.63085,0-30.51125,14.7762-30.51125,37.58773C1312.96621,238.87367,1325.1175,253.391,1344.01684,253.391Z"/><path class="cls-7" d="M1480.905,260.39067c-3.241,9.5911-7.83157,14.5173-19.712,14.5173-11.341,0-15.93163-4.4084-18.90174-14.51729l-24.842-85.80691a44.819,44.819,0,0,1-1.6181-9.33221c0-4.6649,2.9701-8.81442,14.04026-8.81442,10.25991,0,13.77178,3.11153,16.20012,12.44374l18.63327,72.84538,22.41118-68.17809c2.69922-8.29663,7.01893-13.48172,18.09148-13.48172,10.79928,0,15.119,4.92619,17.82061,13.22282l21.87185,68.437,19.44108-72.84539c2.43073-8.81442,4.85907-12.44374,15.66075-12.44375,10.53079,0,13.77178,4.14951,13.77178,8.81441,0,2.85264-1.08112,6.482-1.89137,9.07331l-26.4624,86.32472c-3.23858,10.37018-8.10005,14.25841-19.17021,14.25841-12.15129,0-16.20012-4.4084-19.4411-14.51729l-22.41122-66.62231Z"/><path class="cls-7" d="M1666.19132,155.91928c9.72055,0,18.09149,2.07355,24.30257,5.96177l0-53.40189c0-7.51754,4.85907-11.40577,14.582-11.40577,9.72055,0,14.57963,3.88822,14.57963,11.40576l0,155.023c0,7.77644-4.59059,11.40577-14.31114,11.40577-8.9103,0-12.69065-3.37043-12.69065-9.07331v-3.62932c-8.10006,8.55313-19.17021,12.96154-32.942,12.96154-30.24277,0-53.19334-21.77593-53.19336-58.32807C1606.51842,179.50991,1630.27922,155.9193,1666.19132,155.91928Zm3.51187,22.81392c-20.52223,0-33.21287,13.47933-33.21286,36.54975,0,23.59061,12.96154,37.33122,32.13176,37.33121a33.0737,33.0737,0,0,0,21.87183-7.77884l0-59.88146A35.604,35.604,0,0,0,1669.70319,178.73321Z"/></g><path id="tail" class="cls-8" d="M117.34971,241.31932c13.47735.46074,8.863,30.89053,8.863,30.89053s-82.65532-7.00156-117.60757-9.79639C-.9111,261.65253-29.19021,236.30969,117.34971,241.31932Z"/><path id="planet" class="cls-9" d="M204.6709,257.98994S370.18237,240.87683,375.271,221.20328A176.83312,176.83312,0,1,0,65.75456,286.93116C75.69081,299.39327,204.6709,257.98994,204.6709,257.98994Z"/><path id="clock-long" class="cls-10" d="M204.77811,190.92889a14.07811,14.07811,0,0,1-8.44023-2.803l-90.17337-67.188A14.14474,14.14474,0,0,1,123.06685,98.253l90.17365,67.188a14.14533,14.14533,0,0,1-8.46239,25.48788Z"/><path id="clock-short" class="cls-11" d="M204.80171,190.9312a14.14687,14.14687,0,0,1-6.761-26.57885l61.88368-33.594a14.14474,14.14474,0,1,1,13.49677,24.86225l-61.88368,33.59429A14.08412,14.08412,0,0,1,204.80171,190.9312Z"/><circle id="clock-center" class="cls-12" cx="204.19968" cy="176.78347" r="28.28968"/><path id="body-back" class="cls-13" d="M58.73414,277.57735a175.53815,175.53815,0,0,0,33.5858,36.22932A28.01789,28.01789,0,0,0,109.98531,320h1.76418c8.28871,0,15.54315-4.00007,22.67122-8.23011,30.10718-17.86656,43.49207-25.48928,70.20574-25.48928,26.71421,0,40.09964,7.62272,70.20783,25.48946C281.96235,316,289.21672,320,297.50533,320h.7584a28.41847,28.41847,0,0,0,17.94387-6.41978,175.82111,175.82111,0,0,0,45.87063-57.09661Z"/><path id="body-front" class="cls-14" d="M425.03564,193.87527c-6.8508-16.9679-28.37382-21.29338-41.02114-14.33021C271.5002,241.66969,149.59709,275.3457,3.56416,260.18929l.07723.24565c9.46615,7.08048,29.04938,12.98474,55.09274,17.1424a175.53815,175.53815,0,0,0,33.5858,36.22932A28.01789,28.01789,0,0,0,109.98531,320h1.76418c8.28871,0,15.54315-4.00007,22.67122-8.23011,30.10718-17.86656,43.49207-25.48928,70.20574-25.48928,26.71421,0,40.09964,7.62272,70.20783,25.48946C281.96235,316,289.21672,320,297.50533,320h.7584a28.41847,28.41847,0,0,0,17.94387-6.41978,175.82111,175.82111,0,0,0,45.87063-57.09661l.7911-1.54821a284.1481,284.1481,0,0,0,50.43607-22.41827C421.15934,228.07749,433.24248,214.20179,425.03564,193.87527Z"/><circle id="eye" class="cls-15" cx="399.17773" cy="197.43234" r="7.07242"/></g></g></svg>