<svg xmlns="http://www.w3.org/2000/svg" width="600.20044" height="543" viewBox="0 0 600.20044 543"><title>tc-play-circle</title><g id="レイヤー_2" data-name="レイヤー 2"><g id="レイヤー_6" data-name="レイヤー 6"><path d="M569.94141,431.44165A298.78292,298.78292,0,0,0,600.20044,300c0-165.68542-134.31458-300-300-300a300.918,300.918,0,0,0-67.83716,7.70306C99.252,38.37555,0,157.61932,0,300.0459A298.52143,298.52143,0,0,0,52.29956,469.29114c.90088,1.70886-.09912-.29114,1.085,1.729a297.83779,297.83779,0,0,0,56.98608,61.47144A47.53872,47.53872,0,0,0,140.344,543h2.99329c14.06372,0,26.37256-6.787,38.46692-13.96429,51.08386-30.31476,73.79443-43.24847,119.12036-43.24847,45.3269,0,68.03833,12.93372,119.12378,43.24878,12.09448,7.177,24.4032,13.964,38.4668,13.964h1.28674a48.21863,48.21863,0,0,0,30.44592-10.89264,298.32025,298.32025,0,0,0,77.83008-96.87762l1.34229-2.62689C570.90991,432.10388,571.04,431.71991,569.94141,431.44165ZM426.01294,311.381,254.86426,417.16284c-14.69922,9.08508-33.66382-5.39844-33.66382-18.76819V201.61c0-13.35156,18.90674-27.82855,33.60779-18.80267L425.978,287.89917A13.78989,13.78989,0,0,1,426.01294,311.381Z"/></g></g></svg>